<?xml version="1.0" encoding="utf-8"?>
<!-- Generator: Adobe Illustrator 21.1.0, SVG Export Plug-In . SVG Version: 6.00 Build 0)  -->
<svg version="1.1" id="Layer_1" xmlns="http://www.w3.org/2000/svg" xmlns:xlink="http://www.w3.org/1999/xlink" x="0px" y="0px"
     viewBox="0 0 100 125" style="enable-background:new 0 0 100 125;" xml:space="preserve">
<path d="M24,40 C19.0357483,40 15,44.0383328 15,49 C15,53.9642517 19.0383328,58 24,58 C28.9616672,58 33,53.9616672 33,49 C32.9971127,44.0386282 28.9616672,40 24,40 Z M24,56.5977191 C19.8116918,56.5977191 16.3993272,53.1882343 16.3993272,48.9970463 C16.3993272,44.8087381 19.8088119,41.3993272 24,41.3993272 C28.1883082,41.3993272 31.5977191,44.8059321 31.5977191,48.9970463 C31.5977191,53.1881605 28.1882343,56.5977191 24,56.5977191 Z" id="Fill-1"></path>
            <path d="M47.42663,44.7854059 L40.9254424,43.7009662 C40.5411922,42.2877539 39.9902226,40.932278 39.2867464,39.6575001 L43.0755798,34.1402798 C43.2677013,33.8605242 43.2366286,33.4827127 42.999294,33.2433725 L38.8770941,29.041316 C38.6397668,28.7932859 38.2639863,28.7644472 37.9899011,28.9663326 L32.664067,32.8771231 C31.4067642,32.1445725 30.0704054,31.5735508 28.674664,31.1841625 L27.5416956,24.5796969 C27.4851846,24.2422639 27.1998232,24 26.8664351,24 L21.0348735,24 C20.6986573,24 20.4104678,24.2480302 20.3567849,24.5883499 L19.3057657,31.1639474 C17.9072036,31.5532914 16.5679515,32.1128322 15.3079002,32.8395575 L9.99617033,28.9691529 C9.72210683,28.7672676 9.34633365,28.7961062 9.11179819,29.0441364 L4.9895962,33.2461929 C4.75226882,33.4884494 4.72118886,33.8633815 4.91048225,34.1431002 L8.64847022,39.5968252 C7.92517575,40.8917592 7.36577981,42.2674649 6.97867045,43.7008333 L0.565073831,44.7881525 C0.242983573,44.8400635 0,45.1342385 0,45.4774377 L0,51.4272378 C0,51.7675576 0.23732741,52.0559589 0.567901912,52.1165231 L6.97867768,53.2730226 C7.36575812,54.7035115 7.92518299,56.0820967 8.64847745,57.37991 L4.86528358,62.7817314 C4.67033402,63.061487 4.6985859,63.442178 4.93874137,63.6844714 L9.06094336,67.8922875 C9.29544989,68.134544 9.66274605,68.1662695 9.93960147,67.9730446 L15.2908232,64.1459047 C16.5537677,64.8755684 17.8958406,65.4408386 19.2915096,65.8331071 L20.3651679,72.4145369 C20.4160227,72.7519698 20.7042122,73 21.0376075,73 L26.8691692,73 C27.2025645,73 27.4879259,72.7577435 27.5444296,72.42319 L28.6915023,65.812965 C30.0872437,65.4178474 31.4236025,64.8439242 32.6752636,64.1113662 L38.0660496,67.9760119 C38.337285,68.1692442 38.7074093,68.1375187 38.9447077,67.8952622 L43.0640867,63.6874468 C43.3014141,63.4423035 43.332494,63.0587257 43.1347164,62.7818274 L39.2922145,57.3309818 C40.0013831,56.0533245 40.5495173,54.6920897 40.9280896,53.2788774 L47.4320981,52.116619 C47.7598373,52.0589344 48,51.7676462 48,51.4273338 L48,45.4775337 C48,45.1343345 47.7570165,44.8401595 47.4264492,44.7853616 L47.42663,44.7854059 Z M46.627028,50.8390134 L40.2558163,51.9782363 C39.987409,52.0243811 39.7726773,52.2291459 39.7076966,52.5002485 C39.3234464,54.0864484 38.7103458,55.603468 37.8853562,57.0109214 C37.7440895,57.2502985 37.7553874,57.556006 37.9164361,57.7809859 L41.6798096,63.1165064 L38.3797786,66.4879565 L33.0991503,62.7040826 C32.8759489,62.5483421 32.5792824,62.5310359 32.347575,62.6781234 C30.9744728,63.5317653 29.4854988,64.1691543 27.9202173,64.5729398 C27.6574589,64.6392775 27.4596812,64.8584616 27.4116545,65.1295642 L26.2871486,71.5984764 L21.6140154,71.5984764 L20.565817,65.1554791 C20.5206111,64.8786103 20.3200126,64.6565394 20.0515981,64.590209 C18.4834957,64.1979782 16.9860591,63.566385 15.6016735,62.7184281 C15.367167,62.5742275 15.0733286,62.5915262 14.8529191,62.7443873 L9.61185505,66.4907539 L6.30900103,63.1164252 L10.0158873,57.8270495 C10.174108,57.5992123 10.1882339,57.2963842 10.0469673,57.056985 C9.20498022,55.632255 8.58063243,54.0979588 8.19070439,52.4944084 C8.12571638,52.2261927 7.91099195,52.0243073 7.64258461,51.9723962 L1.36742286,50.8360528 L1.36742286,46.0687409 L7.64540546,45.004531 C7.9138128,44.9583862 8.13137254,44.7536214 8.19917416,44.4825188 C8.59190136,42.8789685 9.21627084,41.3446722 10.0554371,39.9228217 C10.1967037,39.6863314 10.1882267,39.3863902 10.030006,39.1585161 L6.37114794,33.8143572 L9.67400051,30.4457866 L14.8726795,34.2325399 C15.0930601,34.3969335 15.3897193,34.408466 15.6242548,34.2671448 C17.0058919,33.4221412 18.5033284,32.7933906 20.0770002,32.4040761 C20.3425867,32.3348589 20.5460132,32.1127879 20.5912191,31.8359191 L21.6196715,25.3986822 L26.2899839,25.3986822 L27.4003856,31.8675929 C27.4455915,32.1415749 27.6461899,32.3607664 27.9117764,32.4270968 C29.4742371,32.8222144 30.9688528,33.4595591 32.3475967,34.3132748 C32.5821033,34.4603623 32.8815906,34.445943 33.1048137,34.2815494 L38.3204178,30.4515307 L41.6204488,33.8172219 L37.9079229,39.2190433 C37.7525304,39.4468805 37.7412253,39.7439423 37.8824919,39.9833489 C38.7046607,41.3820901 39.3206183,42.8991098 39.710474,44.4882629 C39.7782829,44.7593729 39.9958354,44.9641303 40.2642427,45.0102751 L46.6269918,46.0716056 L46.627028,50.8390134 Z" id="Fill-2"></path>
            <path d="M57.7041378,11.5444186 C56.8415639,11.1833825 55.9302785,11 55.0018267,11 C52.1705477,11 49.6344718,12.6848451 48.5426459,15.2923243 C47.0525454,18.8568401 48.7375064,22.968716 52.2966546,24.4555814 C53.1592285,24.8166175 54.0676529,25 54.9961046,25 C57.8273836,25 60.3634596,23.3151549 61.4552854,20.7048149 C62.9483204,17.1460207 61.2661545,13.0372256 57.7041378,11.544492 L57.7041378,11.5444186 Z M60.177197,20.1692647 C59.3031788,22.2609989 57.271457,23.6105474 55.0018267,23.6105474 C54.2596375,23.6105474 53.5317537,23.4644136 52.841137,23.175014 C49.9869694,21.9801669 48.6372077,18.6878641 49.8321786,15.8338455 C50.7061968,13.7421113 52.7379186,12.3925627 55.0075489,12.3925627 C55.7497381,12.3925627 56.4776219,12.5386966 57.1710997,12.8280962 C60.0195451,14.025804 61.3693068,17.3181068 60.177197,20.1692647 Z" id="Fill-3"></path>
            <path d="M68.4942838,20.1587009 C68.6155768,19.0974184 68.6184003,18.0245559 68.5055704,16.9574834 L72.6802411,14.2550249 C72.9623123,14.069447 73.0751422,13.7069913 72.9482095,13.3909003 L71.2586131,9.15452965 C71.1316803,8.83556591 70.7988303,8.64419063 70.4687676,8.73697954 L65.6904116,9.87657586 C65.0529244,9.03568561 64.3139227,8.27013996 63.4845777,7.5858774 L64.5705612,2.66227497 C64.6438988,2.32591145 64.4746575,1.98955535 64.1671969,1.85619913 L60.060188,0.0874197466 C59.7414408,-0.0546586373 59.3916716,0.0729224068 59.2139456,0.362884049 L56.6329748,4.619594 C55.5921233,4.48911052 54.5400069,4.48041063 53.496267,4.59639677 L50.9321937,0.333896793 C50.7544892,0.0410327131 50.4018894,-0.07781875 50.0915837,0.0526276157 L45.9733098,1.78080257 C45.6630258,1.91128605 45.490961,2.24764957 45.5614824,2.58108838 L46.5967014,7.48442571 C45.7702449,8.14844545 45.0170826,8.91396883 44.3513681,9.76933414 L39.6209603,8.61815777 C39.2909337,8.53116631 38.9609071,8.71384912 38.8311148,9.02991043 L37.1161001,13.248911 C36.9863439,13.5649723 37.0963575,13.927428 37.3756053,14.1130356 L41.4713493,16.8329384 C41.3472327,17.9000109 41.341593,18.9902435 41.4628861,20.0776554 L37.3248264,22.7018743 C37.0399318,22.8845497 36.9242784,23.2499079 37.0512111,23.5688939 L38.7379913,27.8110545 C38.8621078,28.1271158 39.1921344,28.2981963 39.5193159,28.2315071 L44.2948556,27.1615396 C44.9464457,28.0082198 45.6883141,28.7737655 46.5119544,29.446448 L45.392104,34.335236 C45.3131194,34.6715921 45.4851914,35.0137531 45.7954682,35.1471761 L49.8996609,36.9072705 C50.2043053,37.0464538 50.5597141,36.9275653 50.7402709,36.6404986 L53.4030569,32.3895787 C54.4439083,32.5171672 55.5016572,32.5142647 56.5368762,32.3866763 L59.1629789,36.6694414 C59.2927351,36.8811188 59.5127481,37 59.7412314,37 C59.8286718,37 59.9161195,36.9826076 60.0007438,36.9478081 L64.1162014,35.2079789 C64.4264855,35.0745929 64.5985502,34.732432 64.5223891,34.3960387 L63.4109874,29.4724363 C64.2289952,28.8084166 64.9680041,28.0515783 65.6168212,27.216478 L70.4346767,28.335735 C70.7562401,28.4024317 71.0890902,28.2342462 71.2188175,27.9210873 L72.9338322,23.7020868 C73.0635884,23.3831231 72.9507585,23.0148698 72.6658639,22.8321722 L68.4942838,20.1587009 Z M70.1782477,26.8395027 L65.4957881,25.7491958 C65.2278198,25.688304 64.957028,25.7897928 64.7962427,26.0159676 C64.0741312,27.0134856 63.2138076,27.892011 62.240618,28.6314273 C62.0205978,28.7996054 61.9190545,29.083777 61.9811056,29.3592413 L63.0586403,34.1407653 L60.0150849,35.425335 L57.4594602,31.258519 C57.3353509,31.0497439 57.1125073,30.9279603 56.8783844,30.9279603 C56.844539,30.9279603 56.8106864,30.9308628 56.7740176,30.9366602 C55.5865053,31.1280355 54.3566051,31.1251405 53.1578278,30.9424577 C52.8954992,30.8989656 52.6247074,31.0236517 52.4808483,31.255624 L49.8942451,35.3847306 L46.8563222,34.0798958 L47.9423056,29.3302911 C48.0043639,29.0548268 47.9028205,28.7706552 47.6856166,28.6024772 C46.7067945,27.8543758 45.8436547,26.9641961 45.1215433,25.9579931 C44.9607579,25.7347207 44.6843264,25.621637 44.4248212,25.6883263 L39.7846774,26.7292694 L38.5350635,23.5889215 L42.5546248,21.0372263 C42.7887477,20.8893431 42.912857,20.6138788 42.873372,20.335512 C42.6900207,19.0770717 42.6956676,17.8186313 42.8818351,16.5891411 C42.9241509,16.3165718 42.8028578,16.0411075 42.577198,15.8903218 L38.5971362,13.2487328 L39.8664638,10.1258291 L44.4614756,11.2421911 C44.7266277,11.3117828 45.0058827,11.2044966 45.1694842,10.9783217 C45.9113093,9.96053869 46.7829701,9.07325399 47.7589037,8.34252274 C47.9789239,8.1772397 48.0832906,7.89597795 48.0240558,7.62340866 L47.0198876,2.85635969 L50.0691477,1.57758 L52.5626708,5.71826669 C52.7037064,5.95603643 52.9801451,6.0952198 53.2424737,6.04302789 C54.4384347,5.86904497 55.6711512,5.8719474 56.8699284,6.06912756 C57.1519996,6.10682212 57.4143355,5.98213609 57.5581873,5.7472688 L60.06868,1.61237213 L63.1066029,2.92010196 L62.0516703,7.701626 C61.989612,7.97419529 62.0911626,8.25545704 62.3055358,8.42364252 C63.2956228,9.18911393 64.1531302,10.0793679 64.8526396,11.0739166 C65.0134249,11.3029864 65.2926798,11.4131751 65.5634716,11.3464859 L70.2092479,10.2388089 L71.4588618,13.3704719 L67.3998011,15.9975858 C67.1713178,16.1454691 67.0472085,16.4180384 67.0867008,16.6964051 C67.2587655,17.9287903 67.2531258,19.1755764 67.0725979,20.3992766 C67.0302894,20.6776433 67.1543987,20.9560101 67.3885217,21.1038933 L71.4447662,23.7135629 L70.1782477,26.8395027 Z" id="Fill-4"></path>
</svg>





