<?xml version="1.0" encoding="utf-8"?>
<!-- Generator: Adobe Illustrator 21.1.0, SVG Export Plug-In . SVG Version: 6.00 Build 0)  -->
<svg version="1.1" id="Layer_1" xmlns="http://www.w3.org/2000/svg" xmlns:xlink="http://www.w3.org/1999/xlink" x="0px" y="0px"
	 viewBox="0 0 100 125" style="enable-background:new 0 0 100 125;" xml:space="preserve">
<path d="M69.4,39.2h-5.2v-10c0-7.6-6.2-13.8-13.8-13.8s-13.8,6.2-13.8,13.8v10h-5.2c-2.2,0-4,1.8-4,4v38.1c0,2.2,1.8,4,4,4h38
	c2.2,0,4-1.8,4-4V43.2C73.4,41,71.6,39.2,69.4,39.2z M53.1,62.4v7.2c0,1.5-1.2,2.8-2.8,2.8s-2.8-1.2-2.8-2.8v-7.2
	c-1.2-0.8-1.9-2.2-1.9-3.8c0-2.6,2.1-4.7,4.7-4.7s4.7,2.1,4.7,4.7C55.1,60.2,54.3,61.5,53.1,62.4z M59.2,39.2H41.6v-10
	c0-4.9,4-8.8,8.8-8.8c4.9,0,8.8,4,8.8,8.8V39.2z"/>
</svg>
