<svg version="1.1" xmlns="http://www.w3.org/2000/svg" xmlns:xlink="http://www.w3.org/1999/xlink" x="0px" y="0px"
	 viewBox="0 0 100 125" xml:space="preserve">
<path d="M60.4,64.5H51v-9.4c0-0.6-0.4-1-1-1s-1,0.4-1,1v9.4h-9.4c-0.6,0-1,0.4-1,1s0.4,1,1,1H49V76c0,0.6,0.4,1,1,1s1-0.4,1-1v-9.4
	h9.4c0.6,0,1-0.4,1-1S61,64.5,60.4,64.5z M65.7,36.6c0,1.8,1.5,3.3,3.3,3.3s3.3-1.5,3.3-3.3s-1.5-3.3-3.3-3.3S65.7,34.8,65.7,36.6z
	 M70.4,36.6c0,0.7-0.6,1.3-1.3,1.3s-1.3-0.6-1.3-1.3s0.6-1.3,1.3-1.3S70.4,35.9,70.4,36.6z M82.3,19.3h-1.9v-3.1c0-1.1-0.9-2-2-2
	H21.1c-1.1,0-2,0.9-2,2v3.1h-1.4c-2.2,0-4,1.8-4,4v44.3c0,2.2,1.8,4,4,4h13c2.6,8.2,10.3,14.2,19.3,14.2s16.8-6,19.3-14.2h13
	c2.2,0,4-1.8,4-4V23.3C86.3,21.1,84.5,19.3,82.3,19.3z M21.1,16.2h57.4v3.1H21.1V16.2z M67.7,70.1c-0.1,0.1-0.1,0.3-0.1,0.5
	c0,0,0,0,0,0c-2.2,7.6-9.2,13.2-17.5,13.2s-15.3-5.6-17.5-13.2c0,0,0,0,0,0c0-0.2-0.1-0.3-0.1-0.5c-0.4-1.5-0.6-3-0.6-4.6
	c0-0.8,0-1.5,0.1-2.3c1.1-9.1,8.9-16,18.1-16c2.4,0,4.7,0.4,6.8,1.3c7,2.8,11.5,9.5,11.5,17C68.3,67.1,68,68.6,67.7,70.1z
	 M84.3,41.2H69c-2.5,0-4.6-2-4.6-4.6s2-4.6,4.6-4.6h15.3C84.3,32.1,84.3,41.2,84.3,41.2z M84.3,30.1H69c-3.6,0-6.6,2.9-6.6,6.6
	s2.9,6.6,6.6,6.6h15.3v24.4c0,1.1-0.9,2-2,2H69.9c0.3-1.3,0.4-2.7,0.4-4.1c0-8.3-5-15.7-12.7-18.8c-2.4-1-4.9-1.5-7.6-1.5
	c-10.2,0-18.9,7.6-20.1,17.7c-0.1,0.8-0.2,1.7-0.2,2.5c0,1.4,0.1,2.7,0.4,4.1H17.7c-1.1,0-2-0.9-2-2V23.3c0-1.1,0.9-2,2-2h64.6
	c1.1,0,2,0.9,2,2V30.1z"/>
</svg>
