<?xml version="1.0" encoding="UTF-8"?>
<svg width="73px" height="73px" viewBox="0 0 73 73" version="1.1" xmlns="http://www.w3.org/2000/svg" xmlns:xlink="http://www.w3.org/1999/xlink">
    <title>WallettTansactionSendReceive Copy 2</title>
    <g id="Page-1" stroke="none" stroke-width="1" fill="none" fill-rule="evenodd">
        <g id="WallettTansactionSendReceive-Copy-2" transform="translate(36.500000, 36.500000) rotate(180.000000) translate(-36.500000, -36.500000) ">
            <polygon id="Path" fill="#FFB954" fill-rule="nonzero" points="31 13 41 13 41 17 31 17"></polygon>
            <polygon id="Path" fill="#FFB954" fill-rule="nonzero" points="57 33 61 33 61 43 57 43"></polygon>
            <polygon id="Path" fill="#FFB954" fill-rule="nonzero" points="57.3576159 13 51 13 51 16.6184211 57.3576159 16.6184211 57.3576159 23 61 23 61 13"></polygon>
            <polygon id="Path" fill="#FFB954" fill-rule="nonzero" points="31 59 41 59 41 63 31 63"></polygon>
            <polygon id="Path" fill="#FFB954" fill-rule="nonzero" points="57.3576159 52 57.3576159 58.3576159 51 58.3576159 51 62 61 62 61 52"></polygon>
            <polygon id="Path" fill="#FFB954" fill-rule="nonzero" points="11 33 15 33 15 43 11 43"></polygon>
            <polygon id="Path" fill="#FFB954" fill-rule="nonzero" points="20.9342105 13 11 13 11 23 14.6184211 23 14.6184211 16.5761589 21 16.5761589 21 13"></polygon>
            <polygon id="Path" fill="#FFB954" fill-rule="nonzero" points="14.5761589 58.4238411 14.5761589 52 11 52 11 62 21 62 21 58.3576159 14.5761589 58.3576159"></polygon>
            <polygon id="Path" fill="#FFA729" fill-rule="nonzero" points="41.7037037 37.1035422 41.7037037 26 30.2962963 26 30.2962963 37.1035422 25 37.1035422 36 51 47 37.1035422"></polygon>
            <rect id="Rectangle" x="5.68434189e-14" y="0" width="73" height="73"></rect>
        </g>
    </g>
</svg>