<?xml version="1.0" encoding="utf-8"?>
<!-- Generator: Adobe Illustrator 21.1.0, SVG Export Plug-In . SVG Version: 6.00 Build 0)  -->
<svg version="1.1" id="Layer_1" xmlns="http://www.w3.org/2000/svg" xmlns:xlink="http://www.w3.org/1999/xlink" x="0px" y="0px"
	 viewBox="0 0 96 120" style="enable-background:new 0 0 96 120;" xml:space="preserve">
<g>
	<g>
		<path d="M9.8,41.8l-5.7-5.7c11.7-11.5,27.2-18,43.9-18.2c0.2,0,0.5,0,0.7,0c16.5,0,31.8,6.3,43.2,17.7l-5.7,5.7
			c-10-10-23.6-15.4-38.1-15.3C33.5,26.1,20,31.7,9.8,41.8z"/>
	</g>
	<g>
		<path d="M24.4,56.5l-5.7-5.7C26.6,43,37,38.6,47.9,38.4c11.1-0.2,21.5,4,29.3,11.8l-5.7,5.7C58.7,43,37.6,43.3,24.4,56.5z"/>
	</g>
	<g>
		<path d="M38.4,70.5l-5.7-5.7c8.6-8.6,22.2-8.9,30.4-0.6l-5.7,5.7C52.6,64.8,43.8,65.1,38.4,70.5z"/>
	</g>
	<g>
		<path d="M42.9,74.3c2.5-2.5,6.7-2.9,9.9,0.3L48,79.4L42.9,74.3z"/>
	</g>
</g>
</svg>
