<?xml version="1.0" encoding="utf-8"?>
<!-- Generator: Adobe Illustrator 21.1.0, SVG Export Plug-In . SVG Version: 6.00 Build 0)  -->
<svg version="1.1" id="Layer_1" xmlns="http://www.w3.org/2000/svg" xmlns:xlink="http://www.w3.org/1999/xlink" x="0px" y="0px"
	 viewBox="0 0 24 30" style="enable-background:new 0 0 24 30;" xml:space="preserve">
<g>
	<path d="M12,3c-4.9,0-9,4-9,9s4,9,9,9c4.9,0,9-4,9-9S16.9,3,12,3z M12,20.3c-4.6,0-8.3-3.7-8.3-8.3S7.4,3.7,12,3.7s8.3,3.7,8.3,8.3
		S16.6,20.3,12,20.3z"/>
	<path d="M16.6,8.6C16.6,8.6,16.6,8.6,16.6,8.6c-0.1,0-0.2,0-0.2,0.1l-6,6l-2.9-2.9c-0.1-0.1-0.1-0.1-0.2-0.1c0,0,0,0,0,0
		c-0.1,0-0.2,0-0.2,0.1C7.1,11.8,7,11.9,7,12c0,0.1,0,0.2,0.1,0.2l3.1,3.1c0,0,0.1,0.1,0.1,0.1c0,0,0.1,0,0.1,0c0.1,0,0.2,0,0.2-0.1
		l6.2-6.2C16.9,9.1,17,9,17,8.9c0-0.1,0-0.2-0.1-0.2C16.8,8.6,16.7,8.6,16.6,8.6z"/>
</g>
</svg>
