<?xml version="1.0" encoding="utf-8"?>
<!-- Generator: Adobe Illustrator 21.1.0, SVG Export Plug-In . SVG Version: 6.00 Build 0)  -->
<svg version="1.1" id="Layer_1" xmlns="http://www.w3.org/2000/svg" xmlns:xlink="http://www.w3.org/1999/xlink" x="0px" y="0px"
	 viewBox="0 0 1133.9 1417.4" style="enable-background:new 0 0 1133.9 1417.4;" xml:space="preserve">
<path d="M966.9,230.9c-3.3-3.3-8.2-4.4-12.6-3L171.9,481.3c-4.5,1.5-7.8,5.4-8.5,10.1s1.4,9.4,5.3,12.1l184.1,126.3l38.7,249.5
	c0,0.3,0.1,0.6,0.2,0.8c0,0.1,0,0.2,0.1,0.3c0.1,0.3,0.2,0.6,0.3,0.9c0,0.1,0.1,0.3,0.2,0.4c0.1,0.2,0.2,0.4,0.3,0.6
	c0.1,0.1,0.1,0.3,0.2,0.4c0.1,0.2,0.2,0.4,0.3,0.6c0.1,0.1,0.2,0.3,0.2,0.4c0.1,0.2,0.3,0.4,0.4,0.6c0.1,0.1,0.1,0.2,0.2,0.3
	c0.2,0.3,0.5,0.6,0.7,0.9c0.1,0.1,0.1,0.1,0.2,0.2c0.2,0.2,0.4,0.4,0.6,0.6l0.1,0.1c0.1,0,0.1,0.1,0.2,0.1c0.2,0.2,0.4,0.3,0.6,0.5
	c0.1,0.1,0.2,0.2,0.3,0.2c0.2,0.1,0.4,0.3,0.6,0.4c0.1,0.1,0.2,0.1,0.3,0.2c0.3,0.2,0.5,0.3,0.8,0.4c0.2,0.1,0.3,0.2,0.5,0.2
	c0.2,0.1,0.4,0.2,0.6,0.3c0.2,0.1,0.3,0.1,0.5,0.2s0.4,0.1,0.5,0.2c0.2,0,0.3,0.1,0.5,0.1s0.4,0.1,0.6,0.1c0.2,0,0.3,0.1,0.5,0.1
	c0.1,0,0.2,0,0.3,0.1c0.1,0,0.2,0,0.3,0c0.2,0,0.3,0,0.5,0s0.4,0,0.6,0c0.1,0,0.2,0,0.3,0s0.1,0,0.2,0c0.3,0,0.6,0,0.9,0
	c0.1,0,0.2,0,0.3,0c0.4,0,0.8-0.1,1.1-0.2c0.1,0,0.2-0.1,0.3-0.1c0.3-0.1,0.5-0.1,0.8-0.2c0.2,0,0.3-0.1,0.5-0.1
	c0.2-0.1,0.4-0.1,0.6-0.2c0.2-0.1,0.3-0.1,0.5-0.2c0.3-0.1,0.5-0.2,0.7-0.4c0.2-0.1,0.4-0.2,0.5-0.3c0.2-0.1,0.4-0.3,0.7-0.4
	c0.1-0.1,0.3-0.2,0.4-0.3c0.2-0.2,0.4-0.3,0.6-0.5c0.1-0.1,0.2-0.2,0.3-0.2c0.3-0.3,0.6-0.6,0.9-0.9l0,0L534,753.7l219.3,150.5
	c2.1,1.4,4.6,2.2,7.1,2.2c1.4,0,2.8-0.2,4.1-0.7c3.8-1.3,6.7-4.4,7.8-8.2l198-654.3C971.5,239,970.2,234.1,966.9,230.9z
	 M875.1,279.8L364.5,607.5L203.8,497.2L875.1,279.8z M473.2,694.3c-0.1,0.1-0.1,0.2-0.2,0.2c-0.1,0.1-0.3,0.3-0.4,0.4
	c-0.2,0.2-0.3,0.4-0.5,0.6c-0.1,0.1-0.2,0.3-0.3,0.4c-0.2,0.2-0.3,0.5-0.5,0.7c-0.1,0.1-0.2,0.2-0.2,0.4c-0.2,0.3-0.3,0.6-0.4,0.9
	c0,0.1-0.1,0.1-0.1,0.2l-0.1,0.2l0,0l-60.7,135.3l-31.9-205l478-306.7L473.2,694.3z M446.9,811.8l40.3-89.8l25.8,17.7L446.9,811.8z
	 M753.1,874.1L501.5,701.5l430.6-419L753.1,874.1z"/>
</svg>
