<?xml version="1.0" encoding="UTF-8"?>
<svg fill="#FFFFFF" width="100pt" height="100pt" version="1.1" viewBox="0 0 100 100" xmlns="http://www.w3.org/2000/svg">
 <path d="m48.312 84.148-6.3047 2.5469c-4.8047 1.9414-10.281-0.32422-12.305-5.0977l-2.6562-6.2617c-0.45703-1.0703-1.3125-1.9258-2.3828-2.3828l-6.2617-2.6562c-4.7734-2.0234-7.0391-7.5-5.0977-12.305l2.5469-6.3047c0.4375-1.082 0.4375-2.293 0-3.375l-2.5469-6.3047c-1.9414-4.8047 0.32422-10.281 5.0977-12.305l6.2617-2.6562c1.0703-0.45703 1.9258-1.3125 2.3828-2.3828l2.6562-6.2617c2.0234-4.7734 7.5-7.0391 12.305-5.0977l6.3047 2.5469c1.082 0.4375 2.293 0.4375 3.375 0l6.3047-2.5469c4.8047-1.9414 10.281 0.32422 12.305 5.0977l2.6562 6.2617c0.45703 1.0703 1.3125 1.9258 2.3828 2.3828l6.2617 2.6562c4.7734 2.0234 7.0391 7.5 5.0977 12.305l-2.5469 6.3047c-0.4375 1.082-0.4375 2.293 0 3.375l2.5469 6.3047c1.9414 4.8047-0.32422 10.281-5.0977 12.305l-6.2617 2.6562c-1.0703 0.45703-1.9258 1.3125-2.3828 2.3828l-2.6562 6.2617c-2.0234 4.7734-7.5 7.0391-12.305 5.0977l-6.3047-2.5469c-1.082-0.4375-2.293-0.4375-3.375 0zm5.2461-4.6367 6.3047 2.5469c2.2773 0.92188 4.8711-0.15234 5.832-2.4141l2.6562-6.2617c0.96094-2.2656 2.7656-4.0703 5.0312-5.0312l6.2617-2.6562c2.2617-0.96094 3.3359-3.5547 2.4141-5.832l-2.5469-6.3047c-0.92188-2.2812-0.92188-4.8359 0-7.1172l2.5469-6.3047c0.92188-2.2773-0.15234-4.8711-2.4141-5.832l-6.2617-2.6562c-2.2656-0.96094-4.0703-2.7656-5.0312-5.0312l-2.6562-6.2617c-0.96094-2.2617-3.5547-3.3359-5.832-2.4141l-6.3047 2.5469c-2.2812 0.92188-4.8359 0.92188-7.1172 0l-6.3047-2.5469c-2.2773-0.92188-4.8711 0.15234-5.832 2.4141l-2.6562 6.2617c-0.96094 2.2656-2.7656 4.0703-5.0312 5.0312l-6.2617 2.6562c-2.2617 0.96094-3.3359 3.5547-2.4141 5.832l2.5469 6.3047c0.92188 2.2812 0.92188 4.8359 0 7.1172l-2.5469 6.3047c-0.92188 2.2773 0.15234 4.8711 2.4141 5.832l6.2617 2.6562c2.2656 0.96094 4.0703 2.7656 5.0312 5.0312l2.6562 6.2617c0.96094 2.2617 3.5547 3.3359 5.832 2.4141l6.3047-2.5469c2.2812-0.92188 4.8359-0.92188 7.1172 0zm-8.3633-23.258 17.68-17.68c1.1719-1.1719 3.0703-1.1719 4.2422 0 1.1719 1.1719 1.1719 3.0703 0 4.2422l-19.801 19.801c-1.1719 1.1719-3.0703 1.1719-4.2422 0l-9.1914-9.1914c-1.1719-1.1719-1.1719-3.0703 0-4.2422 1.1719-1.1719 3.0703-1.1719 4.2422 0z"/>
</svg>
