<?xml version="1.0" encoding="UTF-8"?>
<svg width="281px" height="558px" viewBox="0 0 281 558" version="1.1" xmlns="http://www.w3.org/2000/svg" xmlns:xlink="http://www.w3.org/1999/xlink">
    <!-- Generator: Sketch 46 (44423) - http://www.bohemiancoding.com/sketch -->
    <title>Mobile</title>
    <desc>Created with Sketch.</desc>
    <defs></defs>
    <g id="Page-1" stroke="none" stroke-width="1" fill="none" fill-rule="evenodd">
        <g id="Mobile" fill="#1D2951">
            <g id="Group" transform="translate(34.000000, 189.000000)">
                <path d="M201.129032,136.770403 C199.034254,136.770403 197.334145,138.476858 197.334145,140.579456 L197.334145,152.006615 L148.116985,152.006615 L148.020848,144.784651 C169.19126,129.883634 181.800406,105.64282 181.800406,79.634605 C181.800406,35.7289188 146.204362,1.42108547e-14 102.46196,1.42108547e-14 C58.7195577,1.42108547e-14 23.1235139,35.7289188 23.1235139,79.634605 C23.1235139,105.52093 35.7174802,129.86332 56.8069344,144.764336 C56.8423534,144.784651 56.8625928,144.784651 56.9030716,144.804965 L56.8069344,152.006615 L7.5897748,152.006615 L7.5897748,140.579456 C7.5897748,138.476858 5.88966524,136.770403 3.7948874,136.770403 C1.70010955,136.770403 0,138.476858 0,140.579456 L0,159.624722 L64.2955122,159.624722 L64.5130858,143.09851 C64.5333252,141.473314 63.526415,140.102054 62.1197768,139.528157 C61.8667843,139.152331 61.5682531,138.79174 61.1735849,138.517488 C42.0979509,125.043598 30.7132887,103.042506 30.7132887,79.6142901 C30.7132887,39.8985623 62.8939338,7.5977914 102.46196,7.5977914 C142.029986,7.5977914 174.210631,39.8985623 174.210631,79.6142901 C174.210631,103.580853 162.411061,125.876511 142.627048,139.289456 C142.247559,139.528157 141.974327,139.863354 141.716275,140.203629 C140.906699,140.914652 140.370355,141.925321 140.390594,143.078195 L140.608168,159.604407 L204.92392,159.624722 L204.92392,140.579456 C204.92392,138.476858 203.22381,136.770403 201.129032,136.770403 Z" id="Page-1"></path>
                <g id="Page-1" transform="translate(45.839199, 15.433433)">
                    <path d="M104.590353,69.7106388 C103.063109,67.8075636 101.364265,65.9044884 99.5319533,64.009056 C101.364265,62.1136237 103.055483,60.2029056 104.590353,58.3074733 C113.042629,47.8061666 115.664302,38.504791 111.978706,32.1096175 C109.177805,27.2506614 103.106963,24.6826563 94.4316066,24.6826563 C89.5962872,24.6826563 84.0783795,25.4889793 78.1715106,26.9812502 C73.4944451,10.6809141 65.7571714,0.2006254 56.8415748,0.2006254 C47.9183514,0.2006254 40.1867978,10.6809141 35.5097322,26.9812502 C29.5971434,25.4889793 24.0849556,24.6826563 19.2439162,24.6826563 C10.5590268,24.6826563 4.49771759,27.2506614 1.69681692,32.1096175 C-1.99068607,38.504791 0.638614149,47.8118988 9.08516962,58.3074733 C10.6200403,60.2105485 12.3169781,62.1212666 14.1569162,64.0319847 C2.4118188,76.2338304 -2.76479477,88.1758185 1.68919023,95.9161374 C4.49009091,100.775094 10.5514001,103.343099 19.2362895,103.343099 C24.0697022,103.343099 29.5895167,102.536776 35.5021055,101.044505 C40.1734511,117.344841 47.9107247,127.823219 56.8263214,127.823219 C65.7495448,127.823219 73.4791917,117.344841 78.1562573,101.044505 C84.0707528,102.536776 89.5905672,103.343099 94.4239799,103.343099 C103.099336,103.343099 109.170179,100.775094 111.971079,95.9161374 C115.664302,89.520964 113.042629,80.2119455 104.590353,69.7106388 Z M94.4316066,29.42888 C99.2345125,29.42888 105.469329,30.3020782 107.873642,34.4827294 C110.474342,38.9901134 107.927029,46.5890392 100.90285,55.3210209 C99.4652198,57.1056316 97.878869,58.8883316 96.1590511,60.6805851 C92.0406403,56.7922738 87.3406947,52.9784805 82.2079346,49.3347411 C81.6206797,42.9758713 80.6520905,37.0048773 79.3631804,31.5650629 C84.8524882,30.1759708 89.9699949,29.42888 94.4316066,29.42888 Z M67.484616,82.4895214 C63.9458334,84.5339898 60.3784507,86.4084042 56.8415748,88.1013004 C53.2951655,86.4007613 49.7354095,84.5339898 46.1909068,82.4818785 C42.6444976,80.4297673 39.2334619,78.2725666 35.9940268,76.0484907 C35.7042127,72.2041259 35.5478656,68.1897072 35.5478656,64.0014132 C35.5478656,59.807387 35.7118394,55.7834147 35.9940268,51.9409606 C39.1743551,49.7684741 42.5701374,47.6189163 46.1909068,45.5209478 C49.7354095,43.4688366 53.2951655,41.602065 56.8415748,39.9091688 C60.3860774,41.602065 63.9458334,43.4764794 67.4922427,45.5209478 C71.0367453,47.573059 74.4477809,49.7302597 77.6948427,51.9543356 C77.9865635,55.7987004 78.1429106,59.8150298 78.1429106,64.0014132 C78.1429106,68.1897072 77.9865635,72.2041259 77.6948427,76.0484907 C74.4401542,78.2878523 71.0291186,80.4374102 67.484616,82.4895214 Z M77.0999612,82.153235 C76.5413064,86.8402265 75.7805444,91.2062173 74.8500886,95.207261 C70.8365448,93.9844014 66.6647472,92.4615591 62.420496,90.6406448 C64.9067959,89.3700173 67.3873757,88.0344253 69.8527022,86.6013867 C72.333282,85.1683482 74.7528484,83.6837202 77.0999612,82.153235 Z M51.2626535,90.6463769 C47.0164957,92.4615591 42.8466047,93.9901336 38.8311542,95.2149039 C37.9006985,91.2138602 37.1418431,86.8478694 36.5831883,82.1608779 C38.9283945,83.6837202 41.3422408,85.1759911 43.8228206,86.6090296 C46.2881471,88.0344253 48.7744469,89.3776601 51.2626535,90.6463769 Z M31.0271471,72.4811801 C27.3472708,69.7106388 23.9362352,66.8598474 20.8684005,63.9708417 C23.861875,61.1659075 27.2500305,58.3208483 31.0271471,55.4929855 C30.8784267,58.2692589 30.7964398,61.1047645 30.7964398,64.0014132 C30.8021599,66.8904189 30.8841467,69.7106388 31.0271471,72.4811801 Z M36.5755616,45.8648771 C37.1342164,41.1778856 37.8930718,36.8118947 38.8254342,32.8108511 C42.8389781,34.0279785 47.008869,35.556553 51.2550268,37.3717351 C48.7668203,38.6404519 46.2881471,39.9836868 43.815194,41.4090825 C41.3193607,42.8574068 38.9055144,44.3496776 36.5755616,45.8648771 Z M62.420496,37.3717351 C66.6647472,35.556553 70.8365448,34.0279785 74.8500886,32.8032082 C75.7729177,36.8042519 76.5413064,41.1702427 77.0999612,45.8572342 C74.7528484,44.3343919 72.3409087,42.842121 69.8603289,41.4090825 C67.3873757,39.9836868 64.8991692,38.6404519 62.420496,37.3717351 Z M82.6560024,55.536932 C86.3206253,58.2998304 89.7164076,61.135336 92.7766156,64.009056 C89.7164076,66.882776 86.3206253,69.7259246 82.6560024,72.4811801 C82.7970961,69.7106388 82.879083,66.8904189 82.879083,64.009056 C82.879083,61.1276932 82.7970961,58.3074733 82.6560024,55.536932 Z M56.8415748,4.95640273 C63.0458843,4.95640273 69.517128,13.6062235 73.6736722,28.2270384 C68.2587247,29.862613 62.5825631,32.0350995 56.8415748,34.6757119 C51.0986797,32.0350995 45.4225182,29.862613 40.0094773,28.2270384 C44.1641149,13.6062235 50.6296385,4.95640273 56.8415748,4.95640273 Z M5.79997434,34.4827294 C8.20619398,30.3097211 14.4391036,29.42888 19.2439162,29.42888 C23.7055279,29.42888 28.821128,30.1759708 34.3104357,31.5650629 C33.0234323,36.9972344 32.0624698,42.9682284 31.4656816,49.3347411 C26.260468,53.0300699 21.5834024,56.8515061 17.5240984,60.688228 C15.7947472,58.8959744 14.2083964,57.1056316 12.7707659,55.3210209 C5.74849421,46.5890392 3.20880755,38.9901134 5.79997434,34.4827294 Z M19.2439162,98.589232 C14.4391036,98.589232 8.20619398,97.7160339 5.79997434,93.5430256 C2.70163289,88.1548006 6.94016399,78.2267094 17.485965,67.3088662 C21.6196291,71.2048204 26.3272015,75.0396316 31.4733083,78.6910139 C32.0624698,85.0498837 33.0291524,91.0208777 34.3180624,96.4606921 C28.821128,97.8344984 23.7055279,98.589232 19.2439162,98.589232 Z M56.8415748,123.061709 C50.6372652,123.061709 44.1641149,114.411889 40.0094773,99.7968059 C45.4225182,98.1631419 51.0986797,95.9906554 56.8415748,93.3481323 C62.5825631,95.9906554 68.2587247,98.1631419 73.6736722,99.7910737 C69.5095013,114.411889 63.0458843,123.061709 56.8415748,123.061709 Z M107.873642,93.5353827 C105.469329,97.708391 99.2345125,98.589232 94.4316066,98.589232 C89.9699949,98.589232 84.8524882,97.8421413 79.3631804,96.4530492 C80.6520905,91.0132348 81.613053,85.0422408 82.2079346,78.683371 C87.3406947,75.0396316 92.0406403,71.2181954 96.1590511,67.337527 C97.878869,69.1221377 99.4652198,70.9124805 100.90285,72.6970912 C107.934655,81.4290729 110.474342,89.0279987 107.873642,93.5353827 Z" id="Fill-1"></path>
                    <path d="M56.8415748,45.9546808 C46.9059087,45.9546808 38.8254342,54.0523041 38.8254342,64.009056 C38.8254342,73.965808 46.9059087,82.0710742 56.8415748,82.0710742 C66.7772408,82.0710742 74.8577153,73.9734509 74.8577153,64.009056 C74.8577153,54.0523041 66.7772408,45.9546808 56.8415748,45.9546808 Z M56.8415748,77.3172075 C49.5199556,77.3172075 43.5616066,71.3462135 43.5616066,64.009056 C43.5616066,56.6718986 49.5199556,50.7009045 56.8415748,50.7009045 C64.1631939,50.7009045 70.1215429,56.6718986 70.1215429,64.009056 C70.1139162,71.3462135 64.1631939,77.3172075 56.8415748,77.3172075 Z" id="Fill-2"></path>
                </g>
            </g>
            <polygon id="4" points="145.212058 156 145.212058 133.374242 87 133.374242 87 111.578788 120.887734 19 152.488565 19 115.690229 108.465152 145.212058 108.465152 145.212058 70.0636364 173.902287 70.0636364 173.902287 108.465152 187 108.465152 187 133.374242 173.902287 133.374242 173.902287 156"></polygon>
            <polygon id="4" points="145.212058 522 145.212058 499.374242 87 499.374242 87 477.578788 120.887734 385 152.488565 385 115.690229 474.465152 145.212058 474.465152 145.212058 436.063636 173.902287 436.063636 173.902287 474.465152 187 474.465152 187 499.374242 173.902287 499.374242 173.902287 522"></polygon>
        </g>
    </g>
</svg>