<?xml version="1.0" encoding="UTF-8"?>
<svg width="33px" height="32px" viewBox="0 0 33 32" version="1.1" xmlns="http://www.w3.org/2000/svg" xmlns:xlink="http://www.w3.org/1999/xlink">
    <!-- Generator: Sketch 52.6 (67491) - http://www.bohemiancoding.com/sketch -->
    <title>Fill 51</title>
    <desc>Created with Sketch.</desc>
    <g id="Page-1" stroke="none" stroke-width="1" fill="none" fill-rule="evenodd">
        <g id="GitHub-Mark" transform="translate(0.000000, -353.000000)" fill="#FFFFFE">
            <path d="M16.288,353 C7.294,353 0,360.293 0,369.29 C0,376.487 4.667,382.592 11.14,384.746 C11.955,384.896 12.252,384.393 12.252,383.961 C12.252,383.574 12.238,382.55 12.23,381.191 C7.699,382.175 6.743,379.007 6.743,379.007 C6.002,377.125 4.934,376.624 4.934,376.624 C3.455,375.614 5.046,375.634 5.046,375.634 C6.681,375.749 7.541,377.313 7.541,377.313 C8.994,379.802 11.354,379.083 12.282,378.666 C12.43,377.614 12.851,376.896 13.316,376.489 C9.699,376.078 5.896,374.68 5.896,368.438 C5.896,366.66 6.531,365.205 7.573,364.067 C7.405,363.655 6.846,361.998 7.733,359.756 C7.733,359.756 9.1,359.318 12.212,361.426 C13.511,361.064 14.905,360.884 16.29,360.877 C17.674,360.884 19.067,361.064 20.368,361.426 C23.478,359.318 24.843,359.756 24.843,359.756 C25.732,361.998 25.173,363.655 25.006,364.067 C26.05,365.205 26.68,366.66 26.68,368.438 C26.68,374.696 22.871,376.073 19.243,376.476 C19.827,376.979 20.348,377.973 20.348,379.492 C20.348,381.67 20.328,383.427 20.328,383.961 C20.328,384.397 20.622,384.904 21.448,384.745 C27.916,382.586 32.579,376.485 32.579,369.29 C32.579,360.293 25.285,353 16.288,353" id="Fill-51"></path>
        </g>
    </g>
</svg>