<?xml version="1.0" encoding="UTF-8"?>
<svg width="24px" height="24px" viewBox="0 0 24 24" version="1.1" xmlns="http://www.w3.org/2000/svg" xmlns:xlink="http://www.w3.org/1999/xlink">
    <!-- Generator: Sketch 52.4 (67378) - http://www.bohemiancoding.com/sketch -->
    <title>keybase</title>
    <desc>Created with Sketch.</desc>
    <g id="Page-1" stroke="none" stroke-width="1" fill="none" fill-rule="evenodd">
        <g id="keybase" fill="#FFFFFF">
            <path d="M10.446,21.371 C10.446,21.899 10.018,22.324 9.492,22.324 C8.967,22.324 8.538,21.899 8.538,21.371 C8.538,20.845 8.966,20.417 9.491,20.417 C10.015,20.417 10.442,20.848 10.442,21.372 M16.364,21.371 C16.364,21.899 15.936,22.324 15.409,22.324 C14.883,22.324 14.457,21.899 14.457,21.371 C14.457,20.845 14.88,20.417 15.406,20.417 C15.932,20.417 16.36,20.848 16.36,21.372" id="Shape" fill-rule="nonzero"></path>
            <path d="M20.904,12.213 L20.748,12.009 C20.702,11.949 20.652,11.893 20.605,11.834 C20.56,11.773 20.511,11.721 20.464,11.665 C20.36,11.545 20.255,11.426 20.145,11.306 L20.069,11.226 L19.978,11.127 L19.843,10.996 C19.828,10.978 19.811,10.962 19.793,10.943 C18.633,9.804 17.288,8.957 15.838,8.439 L15.608,8.361 C15.62,8.334 15.632,8.306 15.643,8.278 C16.053,7.214 16.01,6.055 15.523,5.023 C15.032,3.988 14.167,3.223 13.085,2.863 C12.429,2.647 11.855,2.544 11.374,2.558 C11.341,2.453 11.274,1.981 11.87,0.71 L10.663,0 L10.376,0.399 C10.046,0.854 9.728,1.294 9.431,1.727 C9.103,1.382 8.665,1.175 8.186,1.147 L6.79,1.061 L6.778,1.061 C6.745,1.058 6.708,1.058 6.674,1.058 C5.684,1.058 4.864,1.829 4.804,2.813 L4.716,4.215 L4.716,4.218 C4.655,5.247 5.443,6.133 6.471,6.197 L7.473,6.258 C7.408,7.098 7.546,7.878 7.878,8.564 C6.532,9.126 5.292,9.965 4.218,11.048 C0.913,14.391 0.913,18.051 0.913,20.994 L0.913,22.769 L2.218,21.382 C2.484,22.312 2.87,23.189 3.363,23.997 L5.06,23.997 C4.227,22.883 3.641,21.571 3.38,20.149 L5.293,18.119 L4.308,21.21 L6.048,19.942 C9.123,17.708 12.792,17.192 16.958,18.413 C18.763,18.945 20.518,18.452 21.431,17.156 L21.535,16.991 C21.626,17.489 21.676,17.989 21.676,18.487 C21.676,20.05 21.421,22.174 20.296,23.999 L21.907,23.999 C22.683,22.436 23.088,20.567 23.088,18.487 C23.087,16.288 22.302,14.066 20.904,12.213 Z M8.894,6.191 C9.017,5.189 9.472,4.242 10.124,3.221 C10.149,3.271 10.178,3.318 10.208,3.365 C10.472,3.763 10.921,3.99 11.407,3.97 C11.624,3.962 12.012,3.995 12.64,4.202 C13.354,4.438 13.926,4.946 14.248,5.627 C14.57,6.308 14.597,7.069 14.327,7.776 C14.154,8.221 13.873,8.596 13.521,8.885 L13.113,8.383 L13.111,8.38 C12.832,8.039 12.417,7.845 11.977,7.845 C11.642,7.845 11.313,7.962 11.052,8.175 C10.718,8.445 10.538,8.835 10.518,9.233 C9.318,8.692 8.718,7.59 8.89,6.192 L8.894,6.191 Z M13.198,11.301 L12.679,11.726 C12.633,11.762 12.584,11.779 12.533,11.779 C12.467,11.779 12.4,11.749 12.356,11.694 L12.245,11.559 C12.162,11.459 12.178,11.309 12.279,11.225 L12.789,10.805 L11.734,9.506 C11.625,9.373 11.643,9.176 11.778,9.07 C11.836,9.022 11.904,8.998 11.972,8.998 C12.063,8.998 12.153,9.036 12.212,9.111 L15.175,12.756 C15.284,12.891 15.265,13.086 15.133,13.192 C15.094,13.221 15.051,13.245 15.007,13.255 C14.984,13.261 14.962,13.264 14.937,13.264 C14.847,13.264 14.759,13.224 14.697,13.151 L14.402,12.786 L13.357,13.64 C13.311,13.677 13.257,13.695 13.203,13.695 C13.135,13.695 13.064,13.665 13.017,13.605 L12.54,13.026 C12.458,12.924 12.472,12.774 12.575,12.69 L13.626,11.833 L13.2,11.3 L13.198,11.301 Z M7.753,4.866 L6.557,4.791 C6.302,4.776 6.107,4.556 6.122,4.303 L6.212,2.902 C6.226,2.657 6.428,2.466 6.673,2.466 L6.697,2.466 L8.098,2.557 C8.221,2.563 8.334,2.617 8.415,2.709 C8.498,2.803 8.538,2.919 8.531,3.045 L8.524,3.146 C8.204,3.713 7.939,4.28 7.751,4.866 L7.753,4.866 Z M20.277,16.347 C19.712,17.152 18.59,17.428 17.353,17.065 C13.467,15.924 9.957,16.162 6.885,17.766 L8.521,12.643 L3.23,18.252 C3.329,14.49 5.683,11.286 8.988,9.941 C9.459,10.314 10.022,10.601 10.661,10.782 C10.821,10.826 10.983,10.856 11.141,10.884 C10.958,11.342 11.022,11.881 11.351,12.291 L11.426,12.381 C11.254,12.831 11.321,13.356 11.647,13.755 L12.122,14.337 C12.388,14.662 12.781,14.85 13.201,14.85 C13.522,14.85 13.836,14.739 14.087,14.536 L14.372,14.304 C14.546,14.378 14.739,14.417 14.938,14.417 C15.051,14.417 15.16,14.407 15.268,14.382 C15.486,14.332 15.692,14.232 15.866,14.091 C16.489,13.581 16.586,12.656 16.075,12.031 L14.405,9.975 C14.55,9.858 14.686,9.731 14.813,9.594 C14.948,9.631 15.084,9.672 15.213,9.714 C15.479,9.811 15.746,9.912 16.008,10.029 C17.013,10.474 17.962,11.129 18.779,11.926 C18.808,11.956 18.838,11.981 18.864,12.009 L19.034,12.184 C19.072,12.223 19.11,12.263 19.145,12.304 C19.224,12.389 19.305,12.479 19.384,12.571 L19.51,12.721 C19.555,12.774 19.596,12.825 19.64,12.881 L19.754,13.031 C19.794,13.082 19.833,13.133 19.871,13.185 C20.709,14.334 20.858,15.514 20.275,16.342 L20.275,16.347 L20.277,16.347 Z" id="Shape" fill-rule="nonzero"></path>
            <polygon id="Path" points="7.719 4.115 6.884 4.064 6.937 3.229 7.771 3.28"></polygon>
        </g>
    </g>
</svg>