<?xml version="1.0" encoding="UTF-8"?>
<svg width="74px" height="57px" viewBox="0 0 74 57" version="1.1" xmlns="http://www.w3.org/2000/svg" xmlns:xlink="http://www.w3.org/1999/xlink">
    <!-- Generator: Sketch 49.3 (51167) - http://www.bohemiancoding.com/sketch -->
    <title>Mark-Logo</title>
    <desc>Created with Sketch.</desc>
    <defs>
        <path d="M73.799898,50.213 L73.799898,56.985 L50.6375399,56.985 L50.5593673,51.1035 C50.552068,50.69275 50.7451224,50.3325 51.0368435,50.079 C51.1297211,49.95775 51.2278844,49.8385 51.3645578,49.75325 C58.489449,44.97325 62.7389116,37.02775 62.7389116,28.48675 C62.7389116,14.33325 51.1496054,2.8225 36.9000748,2.8225 C22.6500408,2.8225 11.0607347,14.33325 11.0607347,28.48675 C11.0607347,36.836 15.1609388,44.6765 22.0306054,49.478 C22.1728163,49.576 22.2802925,49.70425 22.3714082,49.8385 C22.8780816,50.04275 23.2405306,50.5315 23.2332313,51.1105 L23.1551517,56.985 L0,56.985 L0,50.213 C0,49.46375 0.612387755,48.8555 1.36673469,48.8555 C2.12108163,48.8555 2.73321769,49.46375 2.73321769,50.213 L2.73321769,54.28525 L20.4579796,54.28525 L20.4927143,51.71875 C20.4781156,51.7115 20.4708163,51.7115 20.4579796,51.70425 C12.8629116,46.394 8.32751701,37.719 8.32751701,28.494 C8.32751701,12.8475 21.1468844,0.11475 36.9000748,0.11475 C52.6527619,0.11475 65.4721293,12.8475 65.4721293,28.494 C65.4721293,37.7625 60.9311973,46.40125 53.3071837,51.7115 L53.3419184,54.28525 L71.0666803,54.28525 L71.0666803,50.213 C71.0666803,49.46375 71.6785646,48.8555 72.4331633,48.8555 C73.1875102,48.8555 73.799898,49.46375 73.799898,50.213 Z" id="path-1"></path>
        <path d="M37.5585,25.0938798 C40.582,28.8565792 41.51975,32.1922077 40.19875,34.4836612 C39.19675,36.224623 37.02525,37.1448743 33.922,37.1448743 C32.193,37.1448743 30.21875,36.8560546 28.103,36.3213989 C26.43025,42.1618907 23.66525,45.9165464 20.4735,45.9165464 C17.28425,45.9165464 14.51675,42.1618907 12.84575,36.3213989 C10.73075,36.8560546 8.75625,37.1448743 7.0275,37.1448743 C3.921,37.1448743 1.75275,36.224623 0.75075,34.4836612 C-0.84225,31.7100874 1.0095,27.431082 5.2105,23.059071 C4.5525,22.3743497 3.9455,21.6898798 3.3965,21.0079235 C0.375,17.247235 -0.5655,13.9123607 0.75375,11.6206557 C1.7555,9.87969399 3.9235,8.95969399 7.03025,8.95969399 C8.76175,8.95969399 10.7335,9.24851366 12.8485,9.7831694 C14.5215,3.9426776 17.287,0.18726776 20.47875,0.18726776 C23.668,0.18726776 26.4355,3.9426776 28.10875,9.7831694 C30.2215,9.24851366 32.19525,8.95969399 33.92475,8.95969399 C37.02775,8.95969399 39.1995,9.87969399 40.2015,11.6206557 C41.51975,13.9123607 40.582,17.2449727 37.5585,21.0079235 C37.0095,21.6871148 36.4045,22.3718361 35.74925,23.050776 C36.4045,23.7299672 37.01225,24.4119235 37.5585,25.0938798 Z M33.92475,10.6601858 C32.32875,10.6601858 30.49825,10.9278907 28.535,11.4255956 C28.99575,13.3746885 29.34225,15.5143169 29.5525,17.7929508 C31.3885,19.0985464 33.0695,20.4649727 34.54275,21.8582951 C35.158,21.2160546 35.72525,20.5773333 36.2395,19.9378579 C38.75225,16.8091038 39.66325,14.086306 38.733,12.4710273 C37.873,10.9731366 35.64275,10.6601858 33.92475,10.6601858 Z M24.286,29.672765 C25.55375,28.9375191 26.774,28.1673333 27.938,27.3647213 C28.0425,25.987235 28.0985,24.548918 28.0985,23.0480109 C28.0985,21.5481093 28.0425,20.1090383 27.938,18.7315519 C26.7765,17.9344699 25.5565,17.1615191 24.2885,16.4262732 C23.02,15.6937923 21.74675,15.0221421 20.47875,14.4155956 C19.21025,15.0221421 17.937,15.6910273 16.66925,16.4262732 C15.374,17.1781093 14.15925,17.9482951 13.02175,18.7265246 C12.92075,20.1035082 12.862,21.5453443 12.862,23.0480109 C12.862,24.548918 12.918,25.987235 13.02175,27.3647213 C14.1805,28.1618033 15.40075,28.9347541 16.66925,29.67 C17.937,30.4052459 19.21025,31.0741311 20.47875,31.6834426 C21.744,31.0768962 23.02,30.4052459 24.286,29.672765 Z M27.72525,29.5521093 C26.88575,30.1005902 26.02025,30.6324809 25.13275,31.1460219 C24.251,31.6595628 23.36375,32.1381639 22.47425,32.593388 C23.99275,33.2459344 25.48475,33.7916503 26.9205,34.2297814 C27.2535,32.7959891 27.5255,31.2317377 27.72525,29.5521093 Z M18.48325,32.5953989 C17.59325,32.140929 16.70375,31.6595628 15.822,31.1487869 C14.93475,30.6354973 14.07125,30.1005902 13.2325,29.5548743 C13.43225,31.2345027 13.70375,32.7987541 14.0365,34.2325464 C15.473,33.7934098 16.9645,33.2459344 18.48325,32.5953989 Z M11.245,26.0865246 C11.19375,25.0938798 11.1645,24.083388 11.1625,23.0480109 C11.1625,22.0103716 11.192,20.9943497 11.245,19.9994426 C9.894,21.0126995 8.682,22.0319891 7.61125,23.0372022 C8.70875,24.0723279 9.92875,25.0938798 11.245,26.0865246 Z M13.22975,16.5494426 C14.063,16.0064918 14.9265,15.4718361 15.81925,14.9530164 C16.70375,14.4422404 17.5905,13.9608743 18.4805,13.5064044 C16.96175,12.8558689 15.47,12.3081421 14.0345,11.8720219 C13.701,13.3058142 13.4295,14.8700656 13.22975,16.5494426 Z M22.47425,13.5064044 C23.361,13.9608743 24.251,14.4422404 25.13575,14.9530164 C26.023,15.466306 26.88575,16.0012131 27.72525,16.5466776 C27.5255,14.8673005 27.2505,13.3027978 26.9205,11.8692568 C25.48475,12.3081421 23.99275,12.8558689 22.47425,13.5064044 Z M29.71275,20.0152787 C29.76325,21.0079235 29.7925,22.0184153 29.7925,23.050776 C29.7925,24.083388 29.76325,25.0938798 29.71275,26.0865246 C31.0235,25.0994098 32.23825,24.080623 33.33275,23.050776 C32.23825,22.0211803 31.0235,21.0051585 29.71275,20.0152787 Z M20.47875,1.89127869 C18.25675,1.89127869 15.944,4.99087432 14.458,10.2295956 C16.39425,10.8155301 18.4245,11.5940109 20.47875,12.540153 C22.5325,11.5940109 24.56275,10.8155301 26.49975,10.2295956 C25.013,4.99087432 22.69825,1.89127869 20.47875,1.89127869 Z M2.22125,12.4710273 C1.2945,14.086306 2.20275,16.8091038 4.71475,19.9378579 C5.229,20.5773333 5.7965,21.2188197 6.415,21.8610601 C7.867,20.4863388 9.54,19.1168962 11.402,17.7929508 C11.61525,15.5115519 11.959,13.3721749 12.4195,11.4255956 C10.456,10.9278907 8.626,10.6601858 7.03025,10.6601858 C5.3115,10.6601858 3.082,10.9759016 2.22125,12.4710273 Z M7.03025,35.4416175 C8.626,35.4416175 10.456,35.1711475 12.42225,34.6787213 C11.96125,32.7296284 11.61525,30.5902514 11.40475,28.3116175 C9.56375,27.0032568 7.88,25.6292896 6.40125,24.2332022 C2.62925,28.1452131 1.113,31.7027978 2.22125,33.6332896 C3.082,35.1286667 5.3115,35.4416175 7.03025,35.4416175 Z M20.47875,44.2105246 C22.69825,44.2105246 25.01025,41.110929 26.49975,35.8722077 C24.56275,35.2887869 22.5325,34.5105574 20.47875,33.5634098 C18.4245,34.5105574 16.39425,35.2887869 14.458,35.8742186 C15.944,41.110929 18.2595,44.2105246 20.47875,44.2105246 Z M38.733,33.630776 C39.66325,32.0154973 38.755,29.2926995 36.2395,26.1639454 C35.72525,25.5244699 35.158,24.8829836 34.54275,24.2435082 C33.0695,25.6340656 31.3885,27.0032568 29.5525,28.3088525 C29.3395,30.5874863 28.99575,32.7268634 28.535,34.6762077 C30.49825,35.1739126 32.32875,35.4416175 33.92475,35.4416175 C35.64275,35.4416175 37.873,35.1259016 38.733,33.630776 Z" id="path-3"></path>
        <path d="M6.49987392,0 C10.0848026,0 13,2.91472913 13,6.49861119 C13,10.0852709 10.0848026,13 6.49987392,13 C2.91544952,13 0,10.0827458 0,6.49861119 C0,2.91472913 2.91544952,0 6.49987392,0 Z M6.49987392,11.2889886 C9.14173213,11.2889886 11.2883522,9.1396189 11.291126,6.49861119 C11.291126,3.85785599 9.14173213,1.7084863 6.49987392,1.7084863 C3.85826787,1.7084863 1.70887402,3.85785599 1.70887402,6.49861119 C1.70887402,9.1396189 3.85826787,11.2889886 6.49987392,11.2889886 Z" id="path-5"></path>
    </defs>
    <g id="Page-1" stroke="none" stroke-width="1" fill="none" fill-rule="evenodd">
        <g id="Desktop-HD" transform="translate(-156.000000, -115.000000)">
            <g id="HEADER" transform="translate(0.000000, -960.000000)">
                <g id="Mark-Logo" transform="translate(156.000000, 1075.000000)">
                    <g id="Group-3">
                        <mask id="mask-2" fill="white">
                            <use xlink:href="#path-1"></use>
                        </mask>
                        <g id="Clip-2"></g>
                        <polygon id="Fill-1" fill="#FFFFFF" mask="url(#mask-2)" points="0 56.985 73.8187755 56.985 73.8187755 0.105 0 0.105"></polygon>
                    </g>
                    <g id="Group-6" transform="translate(16.000000, 6.000000)">
                        <mask id="mask-4" fill="white">
                            <use xlink:href="#path-3"></use>
                        </mask>
                        <g id="Clip-5"></g>
                        <polygon id="Fill-4" fill="#FFFFFF" mask="url(#mask-4)" points="0.16 45.9446995 40.81 45.9446995 40.81 0.186010929 0.16 0.186010929"></polygon>
                    </g>
                    <g id="Group-9" transform="translate(30.000000, 22.000000)">
                        <mask id="mask-6" fill="white">
                            <use xlink:href="#path-5"></use>
                        </mask>
                        <g id="Clip-8"></g>
                        <polygon id="Fill-7" fill="#FFFFFF" mask="url(#mask-6)" points="0 13 13 13 13 0 0 0"></polygon>
                    </g>
                </g>
            </g>
        </g>
    </g>
</svg>