<?xml version="1.0" encoding="UTF-8"?>
<svg width="145px" height="112px" viewBox="0 0 145 112" version="1.1" xmlns="http://www.w3.org/2000/svg" xmlns:xlink="http://www.w3.org/1999/xlink">
    <g id="Page-1" stroke="none" stroke-width="1" fill="none" fill-rule="evenodd">
        <g id="Brand-marks-|-Logo-variants" transform="translate(-104.000000, -295.000000)" fill="#ffffff">
            <g id="QRL_logo_qrlblue" transform="translate(104.000000, 295.000000)">
                <path d="M141.92984,95.7713124 C140.451628,95.7713124 139.251919,96.9662311 139.251919,98.4385417 L139.251919,106.440229 L104.521062,106.440229 L104.453221,101.383163 C119.392453,90.9489619 128.290293,73.9747148 128.290293,55.7628733 C128.290293,25.0186106 103.17139,6.39488462e-14 72.303881,6.39488462e-14 C41.4363723,6.39488462e-14 16.3174684,25.0186106 16.3174684,55.7628733 C16.3174684,73.8893634 25.2045973,90.9347366 40.0866998,101.368938 C40.1116938,101.383163 40.125976,101.383163 40.1545405,101.397388 L40.0866998,106.440229 L5.35584303,106.440229 L5.35584303,98.4385417 C5.35584303,96.9662311 4.15613419,95.7713124 2.67792152,95.7713124 C1.19970884,95.7713124 0,96.9662311 0,98.4385417 L0,111.774688 L45.3711316,111.774688 L45.5246658,100.202469 C45.538948,99.0644515 44.8284062,98.1042489 43.83579,97.7023864 C43.6572619,97.4392198 43.4465987,97.186722 43.1680949,96.9946815 C29.707076,87.5598025 21.6733115,72.1538863 21.6733115,55.7486481 C21.6733115,27.9383375 44.3820859,5.32023332 72.303881,5.32023332 C100.225676,5.32023332 122.93445,27.9383375 122.93445,55.7486481 C122.93445,72.5308547 114.6079,88.1430367 100.647002,97.53524 C100.37921,97.7023864 100.1864,97.9371026 100.004301,98.175375 C99.4330112,98.6732578 99.0545316,99.3809627 99.0688139,100.188244 L99.2223481,111.760463 L144.607762,111.774688 L144.607762,98.4385417 C144.607762,96.9662311 143.408053,95.7713124 141.92984,95.7713124 Z" id="Page-1"></path>
                <g id="Page-1" transform="translate(33.057823, 10.807018)">
                    <path d="M73.7566234,48.6732881 C72.6788998,47.3406898 71.4800837,46.0080914 70.1870845,44.6808449 C71.4800837,43.3535983 72.6735179,42.0156482 73.7566234,40.6884017 C79.7211035,33.3350277 81.5711283,26.8218864 78.9703298,22.3437673 C76.9938305,18.9413601 72.7098457,17.1431551 66.5879453,17.1431551 C63.1758267,17.1431551 59.282029,17.7077701 55.1137548,18.7527091 C51.8133105,7.33865651 46.3533826,0 40.0619527,0 C33.7651408,0 28.3092494,7.33865651 25.008805,18.7527091 C20.8364945,17.7077701 16.9467331,17.1431551 13.5305782,17.1431551 C7.4019504,17.1431551 3.12469296,18.9413601 1.14819369,22.3437673 C-1.45395035,26.8218864 0.401456386,33.3390416 6.36190007,40.6884017 C7.44500553,42.021 8.64247615,43.3589501 9.94085723,44.6969003 C1.65274592,53.2410499 -2.00021223,61.6032382 1.1428118,67.0232742 C3.11931107,70.4256814 7.39656851,72.2238864 13.5251963,72.2238864 C16.9359694,72.2238864 20.8311126,71.6592715 25.0034232,70.6143324 C28.2998311,82.028385 33.7597589,89.3657036 40.0511889,89.3657036 C46.3480007,89.3657036 51.8025467,82.028385 55.102991,70.6143324 C59.2766471,71.6592715 63.1717903,72.2238864 66.5825634,72.2238864 C72.7044638,72.2238864 76.9884486,70.4256814 78.9649479,67.0232742 C81.5711283,62.5451551 79.7211035,56.026662 73.7566234,48.6732881 Z M66.5879453,20.4666233 C69.9771908,20.4666233 74.3768862,21.0780665 76.0735272,24.0055014 C77.9087519,27.1617258 76.1112004,32.4827535 71.1544793,38.5971856 C70.139993,39.846831 69.0205598,41.0951385 67.8069435,42.3501357 C64.9007226,39.6274072 61.5841326,36.9568587 57.9621203,34.4053878 C57.5477148,29.9526898 56.8642147,25.7715956 55.9546752,21.9624515 C59.8282909,20.9897618 63.4395394,20.4666233 66.5879453,20.4666233 Z M47.5723808,57.6214986 C45.0751836,59.0531053 42.5578044,60.3656343 40.0619527,61.5510582 C37.5593736,60.3602825 35.0473762,59.0531053 32.5461426,57.6161468 C30.0435636,56.1791884 27.6365131,54.6686427 25.3505551,53.1112687 C25.1460433,50.419313 25.0357145,47.6082798 25.0357145,44.6754931 C25.0357145,41.7386925 25.1514251,38.9209695 25.3505551,36.2303518 C27.5948034,34.7091025 29.9910901,33.2039086 32.5461426,31.7348393 C35.0473762,30.2978809 37.5593736,28.9907036 40.0619527,27.8052798 C42.5631863,28.9907036 45.0751836,30.3032327 47.5777627,31.7348393 C50.0789963,33.1717978 52.4860468,34.6823435 54.7773867,36.2397175 C54.983244,38.9316731 55.0935727,41.7440443 55.0935727,44.6754931 C55.0935727,47.6082798 54.983244,50.419313 54.7773867,53.1112687 C52.4806649,54.6793463 50.0736144,56.1845402 47.5723808,57.6214986 Z M54.3575992,57.3860194 C53.9633757,60.6680111 53.4265322,63.7252271 52.7699415,66.5268947 C49.9377217,65.6706066 46.9938276,64.6042604 43.9988055,63.3291939 C45.7533018,62.4394571 47.5037617,61.5042299 49.2434578,60.5007673 C50.9939177,59.4973047 52.7013224,58.4577175 54.3575992,57.3860194 Z M36.1250998,63.3332078 C33.1287323,64.6042604 30.1861837,65.6746205 27.3526183,66.5322465 C26.6960277,63.7305789 26.1605296,60.6733629 25.7663061,57.3913712 C27.4212374,58.4577175 29.1246058,59.5026565 30.8750656,60.5061191 C32.6147617,61.5042299 34.369258,62.4448089 36.1250998,63.3332078 Z M21.8455989,50.6133158 C19.2488368,48.6732881 16.8417863,46.6770665 14.6769208,44.6540859 C16.7893128,42.6899751 19.1802177,40.6977673 21.8455989,38.7176011 C21.7406521,40.6616427 21.6827967,42.6471607 21.6827967,44.6754931 C21.6868332,46.6984737 21.7446885,48.6732881 21.8455989,50.6133158 Z M25.7609242,31.9756704 C26.1551477,28.6936787 26.6906458,25.6364626 27.3485819,22.834795 C30.1808018,23.6870693 33.1233504,24.7574294 36.1197179,26.028482 C34.3638761,26.9168809 32.6147617,27.8574598 30.8696838,28.8555706 C29.1084601,29.8697368 27.4050918,30.9146759 25.7609242,31.9756704 Z M43.9988055,26.028482 C46.9938276,24.7574294 49.9377217,23.6870693 52.7699415,22.8294432 C53.4211503,25.6311108 53.9633757,28.6883269 54.3575992,31.9703186 C52.7013224,30.9039723 50.9992996,29.8590332 49.2488397,28.8555706 C47.5037617,27.8574598 45.7479199,26.9168809 43.9988055,26.028482 Z M58.2783064,38.748374 C60.8643048,40.6830499 63.2605915,42.6685679 65.420075,44.6808449 C63.2605915,46.6931219 60.8643048,48.6839917 58.2783064,50.6133158 C58.3778714,48.6732881 58.4357267,46.6984737 58.4357267,44.6808449 C58.4357267,42.6632161 58.3778714,40.6884017 58.2783064,38.748374 Z M40.0619527,3.33015789 C44.4401206,3.33015789 49.0066546,9.38705817 51.9397849,19.6250526 C48.1186427,20.770338 44.1131707,22.2915873 40.0619527,24.1406343 C36.0093891,22.2915873 32.0039172,20.770338 28.1841204,19.6250526 C31.1159052,9.38705817 35.6784029,3.33015789 40.0619527,3.33015789 Z M4.04365076,24.0055014 C5.7416372,21.0834183 10.1399872,20.4666233 13.5305782,20.4666233 C16.6789841,20.4666233 20.2888871,20.9897618 24.1625028,21.9624515 C23.2543088,25.7662438 22.5761906,29.947338 22.1550576,34.4053878 C18.4819174,36.9929834 15.1814731,39.6688837 12.3169619,42.3554875 C11.0966182,41.1004903 9.97718499,39.846831 8.96269864,38.5971856 C4.007323,32.4827535 2.21515347,27.1617258 4.04365076,24.0055014 Z M13.5305782,68.8950665 C10.1399872,68.8950665 5.7416372,68.2836233 4.04365076,65.3615402 C1.85725776,61.5885208 4.84824338,54.6365319 12.2900524,46.9914848 C15.207037,49.7195651 18.5290089,52.404831 22.1604395,54.9616537 C22.5761906,59.4143518 23.2583452,63.595446 24.1678847,67.40459 C20.2888871,68.3665762 16.6789841,68.8950665 13.5305782,68.8950665 Z M40.0619527,86.0315319 C35.6837848,86.0315319 31.1159052,79.9746316 28.1841204,69.740651 C32.0039172,68.5967036 36.0093891,67.0754543 40.0619527,65.2250693 C44.1131707,67.0754543 48.1186427,68.5967036 51.9397849,69.7366371 C49.0012727,79.9746316 44.4401206,86.0315319 40.0619527,86.0315319 Z M76.0735272,65.3561884 C74.3768862,68.2782715 69.9771908,68.8950665 66.5879453,68.8950665 C63.4395394,68.8950665 59.8282909,68.371928 55.9546752,67.3992382 C56.8642147,63.5900942 57.5423329,59.409 57.9621203,54.9563019 C61.5841326,52.404831 64.9007226,49.7289307 67.8069435,47.011554 C69.0205598,48.2611994 70.139993,49.5148587 71.1544793,50.7645042 C76.1165823,56.8789363 77.9087519,62.199964 76.0735272,65.3561884 Z" id="Fill-1"></path>
                    <path d="M39.7133707,32 C32.7021129,32 27,37.6702327 27,44.6422909 C27,51.614349 32.7021129,57.2899335 39.7133707,57.2899335 C46.7246285,57.2899335 52.4267415,51.6197008 52.4267415,44.6422909 C52.4267415,37.6702327 46.7246285,32 39.7133707,32 Z M39.7133707,53.9611136 C34.5467559,53.9611136 30.342154,49.7800194 30.342154,44.6422909 C30.342154,39.5045623 34.5467559,35.3234681 39.7133707,35.3234681 C44.8799856,35.3234681 49.0845875,39.5045623 49.0845875,44.6422909 C49.0792056,49.7800194 44.8799856,53.9611136 39.7133707,53.9611136 Z" id="Fill-2"></path>
                </g>
            </g>
        </g>
    </g>
</svg>