<?xml version="1.0" encoding="UTF-8"?>
<svg width="162px" height="165px" viewBox="0 0 162 165" version="1.1" xmlns="http://www.w3.org/2000/svg" xmlns:xlink="http://www.w3.org/1999/xlink">
    <title>Symbol/white</title>
    <g id="Symbol/white" stroke="none" stroke-width="1" fill="none" fill-rule="evenodd">
        <g id="Group-15" transform="translate(28.000000, 26.000000)" fill="#FFFFFF">
            <g id="Group-7">
                <path d="M105.665409,52.9846253 C105.665409,23.7354039 81.7995855,-0.0369249239 52.5327295,0.121269611 C25.1102734,0.272134667 1.90231594,22.0444913 0.115831884,49.43044 C-1.15831884,69.0200633 8.176543,87.2620085 24.5801198,97.6660242 L24.5608145,105.306334 L6.7197343,105.364283 L6.7197343,93.2069481 L0.0341555556,93.2069481 L0.0341555556,112.000149 L31.2553034,112.000149 L31.2746087,97.5441834 C31.2790638,95.3079589 30.1207449,93.2411229 28.1753633,92.0093421 C14.7269845,83.5042599 6.69448889,68.9190246 6.69448889,52.9846253 C6.69448889,27.617965 27.2487082,6.96594937 52.566885,6.81587716 C77.3742135,6.67174841 98.1303961,26.5986627 98.9516145,51.4051525 C99.5010734,67.9472699 91.3913565,83.2249176 77.4989556,92.0093421 C75.5535739,93.2411229 74.3952551,95.3079589 74.3997101,97.5441834 L74.4338657,112.000149 L105.641648,112.000149 L105.641648,93.2069481 L98.9516145,93.2069481 L99.0095304,105.306334 L81.1105343,105.364283 L81.091229,97.6600807 C96.4745942,87.9187602 105.665409,71.2221129 105.665409,52.9846253" id="Fill-5"></path>
                <path d="M52.8325558,46.362875 C49.1838515,46.362875 46.2152882,49.333116 46.2152882,52.9838824 C46.2152882,56.6361347 49.1838515,59.6063756 52.8325558,59.6063756 C56.4812602,59.6063756 59.4498235,56.6361347 59.4498235,52.9838824 C59.4498235,49.333116 56.4812602,46.362875 52.8325558,46.362875" id="Fill-3"></path>
                <path d="M69.471509,51.748387 C71.8223022,53.9311203 74.4285196,56.5833865 76.6441757,59.0989533 C81.5299051,64.6486532 82.3882491,68.1552908 81.5640607,69.5802338 C80.7769979,70.9472282 77.2233351,71.8357745 71.07385,70.7540659 C70.0744288,70.5802199 69.0467921,70.3528828 67.99391,70.0928567 C68.978481,64.7170029 69.4819042,58.8389272 69.4819042,52.9801677 C69.4759641,52.574527 69.4759641,52.1584853 69.471509,51.748387 M47.8554974,61.6115483 C42.9905583,58.8002947 38.8295206,55.8434265 35.3976298,52.9757101 C39.0121786,49.9608933 43.2415273,47.0248271 47.8554974,44.3591882 C52.4709525,41.6920633 57.1235331,39.4944713 61.539995,37.8719085 C62.3122075,42.2819511 62.7859302,47.3680616 62.7859302,52.9846253 C62.7859302,58.601189 62.3122075,63.693243 61.539995,68.0973421 C57.1235331,66.4747793 52.4709525,64.2771873 47.8554974,61.6115483 M40.3590955,69.3573543 C31.0524491,72.6084235 25.1583882,71.4108176 24.101051,69.5802338 C23.3139882,68.2132395 24.3134095,64.6917432 28.3303998,59.9013195 C28.9808404,59.124213 29.6906819,58.3411629 30.4435892,57.5640564 C34.6046269,61.103383 39.4413505,64.4748071 44.509738,67.4064157 C44.635965,67.479223 44.7666471,67.5520303 44.8913892,67.6248376 C43.0870848,68.3395379 41.3585167,69.0096623 40.3590955,69.3573543 M44.8141679,34.5777493 C45.4853988,31.5881921 46.3734433,28.8452882 46.3734433,28.8452882 C48.5504887,22.5912891 51.1864066,19.7889507 52.8318133,19.7889507 C55.0727148,19.7889507 57.9581167,24.0206897 60.0490307,31.2984487 C55.0147988,33.0859424 49.7192027,35.549504 44.509738,38.5583774 C44.3033196,38.6787323 44.0998713,38.7990873 43.897908,38.9209281 C44.1919428,37.4320929 44.5008278,35.9833761 44.8141679,34.5777493 M76.1080819,77.9456449 C82.8515766,77.9456449 85.9419119,75.3810446 87.3556549,72.9278841 C90.0791892,68.2087819 88.1664781,62.0647367 81.6650423,54.6755379 C78.0638587,50.5849559 72.6331254,45.2328759 68.9458104,42.5716945 C68.7082066,40.2775214 68.3904114,38.0308959 67.99391,35.8674787 C69.0467921,35.6074526 70.0803689,35.3845731 71.07385,35.2062695 C77.2233351,34.1201033 80.7769979,35.0131073 81.5640607,36.3801016 C82.0942143,37.3028228 81.6888027,39.215129 80.4488075,41.6296571 C79.3870153,43.7024365 78.4262046,44.851009 78.1217747,45.1897858 C80.0374558,46.9044722 81.770479,48.6964235 82.8857322,49.8940294 C83.4515264,49.2952264 84.8890298,47.6280877 86.4007843,44.6920216 C88.8035534,40.0160094 89.1272887,36.0948158 87.36011,33.0324513 C85.5706558,29.9269968 81.090338,26.6432386 69.9155312,28.6134935 C68.8002781,28.8111134 67.6523544,29.0577667 66.4836404,29.34751 C63.7467409,19.8275831 59.1654414,13.0906784 52.8377534,13.0906784 C49.1593486,13.0906784 43.955824,15.4428002 40.0413003,26.7011873 C40.0026897,26.8259998 39.041879,29.7769246 38.2934269,33.1052586 C37.5301244,36.4915414 36.8202829,40.1274492 36.1787525,43.9282878 C34.1516945,45.3829481 32.2404684,46.8747549 30.4628945,48.3918215 C25.1969988,42.9431603 22.9813428,38.3265827 24.101051,36.3845592 C24.776737,35.2151847 26.8958665,34.2449159 30.1064887,34.7085053 C31.9553438,34.9744748 33.1953389,35.2686758 33.7269776,35.4083469 C34.2185206,32.8823791 34.8704462,30.4723087 35.3248636,28.9076945 C34.5467109,28.7100746 33.1136626,28.3816988 31.0613592,28.0815544 C25.4242075,27.270273 20.5384781,29.1692064 18.3094568,33.0369089 C15.1419003,38.5242025 18.6807129,45.8658537 25.5548897,52.9950264 C24.7188211,53.8642565 23.9273032,54.7334866 23.2040964,55.6027167 C15.9141129,64.3009611 16.5185177,69.8268872 18.3094568,72.9278841 C20.2934491,76.3617145 24.3965708,78.1239485 29.8599747,78.1239485 C33.5532298,78.1239485 37.873165,77.3171247 42.5702964,75.6752456 C44.8245631,74.887738 50.2018356,72.7154057 52.7412269,71.6767871 C55.2123071,72.8164444 57.6596269,73.8164304 60.0490307,74.6663443 C57.9581167,81.9441033 55.0727148,86.1758424 52.8318133,86.1758424 C51.0557244,86.1758424 48.9172897,83.5770672 47.2421824,79.3899041 C47.1753563,79.2205157 47.0595244,78.8817388 46.9332974,78.510273 C44.6656655,79.4047628 42.3237824,80.1283783 40.5863042,80.6261425 C40.7362916,81.0793308 40.8996443,81.5577789 41.0303264,81.8772395 C44.6656655,90.9618084 49.4533834,92.8696571 52.8318133,92.8696571 C59.1654414,92.8696571 63.7467409,86.1327523 66.4791853,76.6128254 C67.6523544,76.9025688 68.795823,77.1492221 69.9110761,77.3468419 C72.2618694,77.7613978 74.3126877,77.9456449 76.1080819,77.9456449" id="Fill-1"></path>
            </g>
        </g>
    </g>
</svg>